<svg xmlns="http://www.w3.org/2000/svg" viewBox="0 0 512 512">
  <defs>
    <linearGradient id="bg" x1="0%" y1="0%" x2="100%" y2="100%">
      <stop offset="0%" stop-color="#0a0a0f"/>
      <stop offset="100%" stop-color="#12121a"/>
    </linearGradient>
    <linearGradient id="accent" x1="0%" y1="0%" x2="100%" y2="100%">
      <stop offset="0%" stop-color="#7c6aef"/>
      <stop offset="100%" stop-color="#9d8df7"/>
    </linearGradient>
    <linearGradient id="glow" x1="0%" y1="0%" x2="100%" y2="100%">
      <stop offset="0%" stop-color="#6aefc4" stop-opacity="0.8"/>
      <stop offset="100%" stop-color="#7c6aef" stop-opacity="0.4"/>
    </linearGradient>
  </defs>
  <rect width="512" height="512" rx="100" fill="url(#bg)"/>
  <circle cx="256" cy="256" r="200" fill="none" stroke="url(#accent)" stroke-width="2" opacity="0.5"/>
  <circle cx="256" cy="256" r="180" fill="none" stroke="url(#accent)" stroke-width="1" opacity="0.3"/>
  <circle cx="256" cy="256" r="160" fill="none" stroke="url(#accent)" stroke-width="1" opacity="0.2"/>
  <g fill="none" stroke="url(#glow)" stroke-width="2" opacity="0.6">
    <circle cx="256" cy="256" r="60"/>
    <circle cx="256" cy="196" r="60"/>
    <circle cx="256" cy="316" r="60"/>
    <circle cx="204" cy="226" r="60"/>
    <circle cx="308" cy="226" r="60"/>
    <circle cx="204" cy="286" r="60"/>
    <circle cx="308" cy="286" r="60"/>
  </g>
  <text x="256" y="280" text-anchor="middle" font-family="serif" font-size="120" font-weight="300" fill="url(#accent)">θ</text>
  <circle cx="256" cy="256" r="100" fill="url(#accent)" opacity="0.1"/>
  <circle cx="256" cy="56" r="8" fill="#7c6aef" opacity="0.8"/>
  <circle cx="256" cy="456" r="8" fill="#7c6aef" opacity="0.8"/>
  <circle cx="56" cy="256" r="8" fill="#6aefc4" opacity="0.8"/>
  <circle cx="456" cy="256" r="8" fill="#6aefc4" opacity="0.8"/>
</svg>
